<?xml version="1.0" encoding="UTF-8" standalone="no"?>
<svg width="128px" height="100px" viewBox="0 0 128 100" version="1.1" xmlns="http://www.w3.org/2000/svg" xmlns:xlink="http://www.w3.org/1999/xlink" xmlns:sketch="http://www.bohemiancoding.com/sketch/ns">
    <!-- Generator: Sketch 3.3.2 (12043) - http://www.bohemiancoding.com/sketch -->
    <title>128</title>
    <desc>Created with Sketch.</desc>
    <defs></defs>
    <g id="Page-1" stroke="none" stroke-width="1" fill="none" fill-rule="evenodd" sketch:type="MSPage">
        <g id="128" sketch:type="MSArtboardGroup">
            <g id="logo-maker" sketch:type="MSLayerGroup" transform="translate(23.000000, 9.000000)">
                <g id="Path-3-Copy-4-+-Path-3-Copy-5-Copy" transform="translate(2.187028, 0.000000)" stroke-width="3.82537493" sketch:type="MSShapeGroup" stroke-linecap="round" stroke-linejoin="round">
                    <path d="M33.4018793,53.8124994 L33.4018795,25.0825606 L0,0 L0,53.8125" id="Path-3-Copy-4" stroke="#1ABC9C"></path>
                    <path d="M77.0812602,53.8124994 L77.0812604,25.0825606 L43.6793809,0 L43.6793809,53.8125" id="Path-3-Copy-5" stroke="#546979" transform="translate(60.380321, 26.906250) scale(-1, 1) translate(-60.380321, -26.906250) "></path>
                </g>
                <path d="M1.5271199,68.9710388 L7.59049443,78.9595337 C7.59049443,78.9595337 7.59425813,78.9632873 7.60178563,78.9707947 L7.60178563,78.9820557 C7.61684064,78.9970704 7.63189542,79.0158385 7.64695043,79.0383606 C7.66200544,79.0533753 7.67706023,79.0683898 7.69211523,79.0834045 C7.70717024,79.0984193 7.72222503,79.1134338 7.73728004,79.1284485 C7.75986255,79.1434632 7.77868103,79.1584777 7.79373604,79.1734924 C7.83137356,79.1960145 7.83890095,79.1997681 7.81631844,79.1847534 C7.82384594,79.1847534 7.82760964,79.188507 7.82760964,79.1960144 L7.85019204,79.1960144 C7.87277455,79.2110291 7.89535673,79.22229 7.91793924,79.2297974 C7.93299425,79.2373047 7.95181273,79.244812 7.97439524,79.2523193 C7.99697775,79.2598267 8.01955993,79.2635803 8.04214244,79.2635803 C8.05719745,79.2710877 8.07601593,79.2748413 8.09859844,79.2748413 C8.12118096,79.2823487 8.14376313,79.2861023 8.16634564,79.2861023 C8.18892816,79.2861023 8.21151033,79.2823487 8.23409285,79.2748413 C8.25667536,79.2748413 8.27549384,79.2710877 8.29054885,79.2635803 C8.31313136,79.2635803 8.33571354,79.2598267 8.35829605,79.2523193 C8.38087856,79.244812 8.39969704,79.2373047 8.41475205,79.2297974 C8.43733456,79.22229 8.45991674,79.2110291 8.48249925,79.1960144 C8.51260927,79.1809997 8.52390036,79.1772461 8.51637285,79.1847534 C8.49379034,79.1997681 8.50131773,79.1960145 8.53895525,79.1734924 C8.55401026,79.1584777 8.57282874,79.1434632 8.59541125,79.1284485 C8.61046626,79.1134338 8.62552105,79.0984193 8.64057605,79.0834045 C8.64810356,79.0758972 8.66315834,79.0608827 8.68574086,79.0383606 C8.70079586,79.0158385 8.71585065,78.9970704 8.73090566,78.9820557 L8.73090566,78.9707947 C8.73843316,78.9632873 8.74219686,78.9595337 8.74219686,78.9595337 L14.8055714,68.9710388 L14.8055714,81.3243408 C14.8055714,81.5120249 14.8695542,81.6734307 14.9975218,81.8085632 C15.1330169,81.9361884 15.2910921,82 15.4717522,82 C15.6599398,82 15.818015,81.9361884 15.9459826,81.8085632 C16.0814777,81.6734307 16.1492242,81.5120249 16.1492242,81.3243408 L16.1492242,66.5611877 C16.1492242,66.2233565 15.9836216,66.0093999 15.6524114,65.9193115 C15.3287287,65.8292232 15.0765611,65.930571 14.895901,66.2233582 L8.16634564,77.3154297 L1.4367903,66.2233582 C1.25613019,65.930571 1.00396257,65.8292232 0.68027988,65.9193115 C0.349069683,66.0093999 0.183467069,66.2233565 0.183467069,66.5611877 L0.183467069,81.3243408 C0.183467069,81.5120249 0.247449897,81.6734307 0.375417473,81.8085632 C0.510912553,81.9361884 0.672751472,82 0.860939084,82 C1.04159919,82 1.19967441,81.9361884 1.33516949,81.8085632 C1.46313707,81.6734307 1.5271199,81.5120249 1.5271199,81.3243408 L1.5271199,68.9710388 Z M24.8213679,76.8762512 L28.3893872,68.2953796 L31.9574064,76.8762512 L24.8213679,76.8762512 Z M22.2469742,82 C22.5480744,82 22.7550777,81.8611159 22.8679902,81.5833435 L24.2680991,78.2275696 L32.5106752,78.2275696 L33.9107841,81.5833435 C34.0236966,81.8611159 34.2306999,82 34.5318001,82 C34.6221301,82 34.7086951,81.9812319 34.7914977,81.9436951 C34.9646303,81.8761288 35.0850686,81.7560128 35.1528161,81.5833435 C35.2280911,81.4106742 35.2280911,81.2380075 35.1528161,81.0653381 L33.5833393,77.2929077 L33.5833393,77.2816467 L29.0104032,66.2796631 C28.9953482,66.2421263 28.9765297,66.2008364 28.9539472,66.1557922 C28.9539472,66.1632996 28.9388924,66.1482851 28.9087824,66.1107483 C28.8861998,66.0807188 28.8711451,66.0619507 28.8636176,66.0544434 C28.8560901,66.0544434 28.8372716,66.0394289 28.8071616,66.0093994 C28.7770515,65.9868773 28.7619968,65.9756165 28.7619968,65.9756165 C28.6867217,65.9230649 28.6039204,65.8892823 28.5135904,65.8742676 C28.5211179,65.8742676 28.5022994,65.8742676 28.4571344,65.8742676 C28.4194968,65.8667602 28.3969147,65.8630066 28.3893872,65.8630066 C28.3818596,65.8630066 28.3555138,65.8667602 28.3103487,65.8742676 L28.2538927,65.8742676 C28.1710902,65.8892823 28.0920526,65.9230649 28.0167775,65.9756165 C28.024305,65.9681091 28.0092503,65.97937 27.9716127,66.0093994 C27.9415027,66.0319215 27.9226842,66.046936 27.9151567,66.0544434 C27.9076292,66.0619507 27.8925745,66.0807188 27.8699919,66.1107483 C27.8398819,66.1407777 27.8248271,66.1557922 27.8248271,66.1557922 C27.8022446,66.2008364 27.7834261,66.2421263 27.7683711,66.2796631 L23.195435,77.2816467 L23.195435,77.2929077 L21.6259582,81.0653381 C21.5506832,81.2380075 21.5506832,81.4106742 21.6259582,81.5833435 C21.6937057,81.7560128 21.814144,81.8761288 21.9872766,81.9436951 C22.0700792,81.9812319 22.1566442,82 22.2469742,82 L22.2469742,82 Z M41.3183133,81.6846924 C41.4538084,81.5570672 41.5215549,81.399415 41.5215549,81.211731 L41.5215549,76.9100342 L43.5313885,74.7929688 L50.2044879,81.7973022 C50.339983,81.9324348 50.5018219,82 50.6900095,82 C50.8706696,82 51.0249811,81.939942 51.1529487,81.8198242 C51.2884438,81.6921991 51.359954,81.5345468 51.3674815,81.3468628 C51.3674815,81.1591787 51.3034987,81.0015265 51.1755311,80.8739014 L44.457267,73.8245239 L50.9497071,67.0228882 C51.0776747,66.8877557 51.1378938,66.7263498 51.1303663,66.5386658 C51.1303663,66.3584891 51.0626198,66.2045905 50.9271247,66.0769653 C50.7916296,65.9493402 50.6297907,65.8855286 50.4416031,65.8855286 C50.260943,65.8930359 50.1066315,65.9643548 49.9786639,66.0994873 L41.5215549,74.9731445 L41.5215549,66.4936218 C41.5215549,66.3134451 41.4538084,66.1557929 41.3183133,66.0206604 C41.1903457,65.8930353 41.0322705,65.8292236 40.8440829,65.8292236 C40.6634228,65.8292236 40.5053476,65.8930353 40.3698525,66.0206604 C40.2418849,66.1557929 40.1779021,66.3134451 40.1779021,66.4936218 L40.1779021,81.211731 C40.1779021,81.399415 40.2418849,81.5570672 40.3698525,81.6846924 C40.5053476,81.8198249 40.6634228,81.8873901 40.8440829,81.8873901 C41.0322705,81.8873901 41.1903457,81.8198249 41.3183133,81.6846924 L41.3183133,81.6846924 Z M66.1933293,82 C66.3815169,82 66.5395921,81.9324348 66.6675597,81.7973022 C66.8030548,81.6696771 66.8708013,81.5120249 66.8708013,81.3243408 C66.8708013,81.1366568 66.8030548,80.9790045 66.6675597,80.8513794 C66.5395921,80.7162469 66.3815169,80.6486816 66.1933293,80.6486816 L57.9055883,80.6486816 L57.9055883,74.590271 L64.1044573,74.590271 C64.2926449,74.590271 64.4507201,74.5227058 64.5786877,74.3875732 C64.7141828,74.2599481 64.7819293,74.1022959 64.7819293,73.9146118 C64.7819293,73.7269278 64.7141828,73.5692755 64.5786877,73.4416504 C64.4507201,73.3065179 64.2926449,73.2389526 64.1044573,73.2389526 L57.9055883,73.2389526 L57.9055883,67.180542 L66.1933293,67.203064 C66.3815169,67.203064 66.5395921,67.1392523 66.6675597,67.0116272 C66.8030548,66.8764947 66.8708013,66.7150888 66.8708013,66.5274048 C66.8708013,66.3472281 66.8030548,66.1895759 66.6675597,66.0544434 C66.5395921,65.9193108 66.3815169,65.8517456 66.1933293,65.8517456 L57.2281163,65.8292236 C57.0474562,65.8217163 56.889381,65.8892815 56.7538859,66.0319214 C56.6183908,66.1595465 56.5506443,66.3171988 56.5506443,66.5048828 L56.5506443,81.3243408 C56.5506443,81.5120249 56.6183908,81.6696771 56.7538859,81.7973022 C56.8818535,81.9324348 57.0399287,82 57.2281163,82 L66.1933293,82 Z M80.4771995,72.3268127 C79.8373616,72.912387 79.0582766,73.2126769 78.139921,73.2276917 L73.6234409,73.2276917 L73.6234409,67.203064 L78.0608826,67.203064 C78.9942932,67.203064 79.7921967,67.4996003 80.4546171,68.0926819 C81.1170375,68.6782561 81.4482427,69.3876911 81.4482427,70.2210083 C81.4482427,71.0393107 81.1245649,71.7412385 80.4771995,72.3268127 L80.4771995,72.3268127 Z M72.9459689,65.8742676 C72.7653088,65.8742676 72.6072336,65.9380792 72.4717385,66.0657043 C72.3437709,66.1933295 72.2797881,66.3509817 72.2797881,66.5386658 L72.2797881,81.2229919 C72.2797881,81.4031686 72.3437709,81.5608209 72.4717385,81.6959534 C72.6072336,81.8235785 72.7653088,81.8873901 72.9459689,81.8873901 C73.1341565,81.8873901 73.2922318,81.8235785 73.4201993,81.6959534 C73.5556944,81.5608209 73.6234409,81.4031686 73.6234409,81.2229919 L73.6234409,74.567749 L77.3947018,74.567749 L80.8836827,81.6283875 C81.0041228,81.8761304 81.2035986,82 81.4821163,82 C81.5875014,82 81.6853575,81.9774783 81.7756875,81.9324341 C81.9412926,81.8498531 82.0542035,81.7222299 82.1144235,81.5495605 C82.1746436,81.3768912 82.1633525,81.2079781 82.0805499,81.0428162 L78.8625578,74.5001831 C79.984156,74.3275138 80.9137889,73.8395426 81.6514843,73.0362549 C82.4042348,72.2254598 82.7806043,71.2870537 82.7806043,70.2210083 C82.7806043,69.0198304 82.3214335,67.9950909 81.4030779,67.146759 C80.4771949,66.2984272 79.3631409,65.8742676 78.0608826,65.8742676 L72.9459689,65.8742676 Z" id="Maker" fill="#546979" sketch:type="MSShapeGroup"></path>
            </g>
        </g>
    </g>
</svg>