<svg xmlns="http://www.w3.org/2000/svg" width="24" height="24" viewBox="0 5 24 24" version="1.1"><desc>Created with Sketch.</desc><g id="ic_info_outline_black_24px" stroke="none" stroke-width="1" fill="none" fill-rule="evenodd" transform="translate(0.000000, 5.000000)"><polygon id="Shape" points="0 0 24 0 24 24 0 24"/><path d="M11 17L13 17 13 11 11 11 11 17ZM12 2C6.48 2 2 6.48 2 12 2 17.52 6.48 22 12 22 17.52 22 22 17.52 22 12 22 6.48 17.52 2 12 2ZM12 20C7.59 20 4 16.41 4 12 4 7.59 7.59 4 12 4 16.41 4 20 7.59 20 12 20 16.41 16.41 20 12 20ZM11 9L13 9 13 7 11 7 11 9Z" id="Shape" fill-opacity="1" fill="red"/></g></svg>