<?xml version="1.0" encoding="UTF-8" standalone="no"?>
<svg width="14px" height="13px" viewBox="0 0 14 13" version="1.1" xmlns="http://www.w3.org/2000/svg" xmlns:xlink="http://www.w3.org/1999/xlink">
    <!-- Generator: Sketch 39.1 (31720) - http://www.bohemiancoding.com/sketch -->
    <title>clock</title>
    <desc>Created with Sketch.</desc>
    <defs>
        <path d="M5,10 C7.76142375,10 10,7.76142375 10,5 C10,2.23857625 7.76142375,0 5,0 C2.23857625,0 0,2.23857625 0,5 C0,7.76142375 2.23857625,10 5,10 Z" id="path-1"></path>
        <mask id="mask-2" maskContentUnits="userSpaceOnUse" maskUnits="objectBoundingBox" x="-1.5" y="-1.5" width="13" height="13">
            <rect x="-1.5" y="-1.5" width="13" height="13" fill="white"></rect>
            <use xlink:href="#path-1" fill="black"></use>
        </mask>
    </defs>
    <g id="Page-1" stroke="none" stroke-width="1" fill="none" fill-rule="evenodd">
        <g id="Maker_TRADE-Copy-2" transform="translate(-396.000000, -244.000000)">
            <g id="header" transform="translate(230.000000, 174.000000)">
                <g id="Connection" transform="translate(167.000000, 9.500000)">
                    <g id="closing-time-copy-2" transform="translate(1.000000, 43.000000)">
                        <g id="clock" transform="translate(0.000000, 19.000000)">
                            <use id="Oval" stroke-opacity="0.6" stroke="#70737F" mask="url(#mask-2)" stroke-width="3" xlink:href="#path-1"></use>
                            <g id="Group-3" opacity="0.6" transform="translate(3.799988, 2.300003)" fill="#70737F">
                                <path d="M1.5,3 L1.5,0 L0,0 L0,3.5 L0,4.5 L4,4.5 L4,3 L1.5,3 Z" id="Combined-Shape"></path>
                            </g>
                        </g>
                    </g>
                </g>
            </g>
        </g>
    </g>
</svg>