<?xml version="1.0" encoding="UTF-8"?>
<svg width="152px" height="33px" viewBox="0 0 152 33" version="1.1" xmlns="http://www.w3.org/2000/svg" xmlns:xlink="http://www.w3.org/1999/xlink">
    <!-- Generator: Sketch 42 (36781) - http://www.bohemiancoding.com/sketch -->
    <title>Group 10</title>
    <desc>Created with Sketch.</desc>
    <defs>
        <rect id="path-1" x="0" y="0" width="149.425729" height="31" rx="8.505"></rect>
        <mask id="mask-2" maskContentUnits="userSpaceOnUse" maskUnits="objectBoundingBox" x="-0.945" y="-0.945" width="151.315729" height="32.89">
            <rect x="-0.945" y="-0.945" width="151.315729" height="32.89" fill="white"></rect>
            <use xlink:href="#path-1" fill="black"></use>
        </mask>
    </defs>
    <g id="Page-1" stroke="none" stroke-width="1" fill="none" fill-rule="evenodd">
        <g id="Logo-Copy" transform="translate(-437.000000, -84.000000)">
            <g id="Group-10" transform="translate(438.000000, 85.000000)">
                <g id="V2-Copy">
                    <g id="PRO">
                        <g id="Group-7">
                            <g id="Group-2">
                                <g id="Rectangle-7">
                                    <use fill="#70737F" fill-rule="evenodd" xlink:href="#path-1"></use>
                                    <use stroke-opacity="0.5" stroke="#70737F" mask="url(#mask-2)" stroke-width="1.89" xlink:href="#path-1"></use>
                                </g>
                            </g>
                            <g id="Group-8" transform="translate(7.092993, 0.476923)">
                                <g id="Group-6" transform="translate(78.968661, 0.000000)" font-size="23.625" font-family="Montserrat-Regular, Montserrat" letter-spacing="2.36249931" fill="#F8F7F5" font-weight="normal">
                                    <text id="PRO">
                                        <tspan x="0" y="23">PRO</tspan>
                                    </text>
                                </g>
                                <g id="OASIS" transform="translate(0.000000, 6.676923)">
                                    <g id="S" transform="translate(34.654263, 0.000000)" fill="#F8F7F5">
                                        <g id="Group-5" transform="translate(5.571923, 4.452412) scale(-1, 1) translate(-5.571923, -4.452412) translate(0.166517, 0.023840)">
                                            <path d="M2.49578136e-13,0.596153846 C2.49578136e-13,0.266907168 0.269219739,-3.09827865e-13 0.589440918,-3.09827865e-13 L6.26547756,-3.09827865e-13 C6.26547756,-3.09827865e-13 6.26547756,1.19230769 6.26547756,1.19230769 C6.26547756,1.19230769 0.589440918,1.19230769 0.589440918,1.19230769 C0.263901688,1.19230769 2.49578136e-13,0.927695971 2.49578136e-13,0.596153846 L2.49578136e-13,0.596153846 Z" id="Rectangle-4"></path>
                                            <path d="M6.23001269,7.55923095 L6.23001269,8.75153864 C8.62612645,8.75153864 10.5685604,6.79243999 10.5685604,4.37576932 C10.5685604,1.95909866 8.62612645,0 6.23001269,0 L6.23001269,1.19230769 C7.97323443,1.19230769 9.38639487,2.61759201 9.38639487,4.37576932 C9.38639487,6.13394663 7.97323443,7.55923095 6.23001269,7.55923095 Z" id="Combined-Shape"></path>
                                        </g>
                                        <g id="Group-5-Copy" transform="translate(5.743243, 11.906044) scale(1, -1) translate(-5.743243, -11.906044) translate(0.337838, 7.477473)">
                                            <path d="M0,0.596153846 C0,0.266907168 0.269219739,-4.35727156e-13 0.589440918,-4.35727156e-13 L6.26547756,-4.35727156e-13 C6.26547756,-4.35727156e-13 6.26547756,1.19230769 6.26547756,1.19230769 C6.26547756,1.19230769 0.589440918,1.19230769 0.589440918,1.19230769 C0.263901688,1.19230769 0,0.927695971 0,0.596153846 L0,0.596153846 Z" id="Rectangle-4"></path>
                                            <path d="M6.23001269,7.55923095 L6.23001269,8.75153864 C8.62612645,8.75153864 10.5685604,6.79243999 10.5685604,4.37576932 C10.5685604,1.95909866 8.62612645,0 6.23001269,0 L6.23001269,1.19230769 C7.97323443,1.19230769 9.38639487,2.61759201 9.38639487,4.37576932 C9.38639487,6.13394663 7.97323443,7.55923095 6.23001269,7.55923095 Z" id="Combined-Shape"></path>
                                        </g>
                                        <rect id="Rectangle-16" x="4.12076769" y="7.58307401" width="3.0736305" height="1.19230769" rx="0.596153846"></rect>
                                    </g>
                                    <g id="S-Copy" transform="translate(59.716174, 0.000000)" fill="#F8F7F5">
                                        <g id="Group-5" transform="translate(5.571923, 4.452412) scale(-1, 1) translate(-5.571923, -4.452412) translate(0.166517, 0.023840)">
                                            <path d="M2.49578136e-13,0.596153846 C2.49578136e-13,0.266907168 0.269219739,-3.09827865e-13 0.589440918,-3.09827865e-13 L6.26547756,-3.09827865e-13 C6.26547756,-3.09827865e-13 6.26547756,1.19230769 6.26547756,1.19230769 C6.26547756,1.19230769 0.589440918,1.19230769 0.589440918,1.19230769 C0.263901688,1.19230769 2.49578136e-13,0.927695971 2.49578136e-13,0.596153846 L2.49578136e-13,0.596153846 Z" id="Rectangle-4"></path>
                                            <path d="M6.23001269,7.55923095 L6.23001269,8.75153864 C8.62612645,8.75153864 10.5685604,6.79243999 10.5685604,4.37576932 C10.5685604,1.95909866 8.62612645,0 6.23001269,0 L6.23001269,1.19230769 C7.97323443,1.19230769 9.38639487,2.61759201 9.38639487,4.37576932 C9.38639487,6.13394663 7.97323443,7.55923095 6.23001269,7.55923095 Z" id="Combined-Shape"></path>
                                        </g>
                                        <g id="Group-5-Copy" transform="translate(5.743243, 11.906044) scale(1, -1) translate(-5.743243, -11.906044) translate(0.337838, 7.477473)">
                                            <path d="M0,0.596153846 C0,0.266907168 0.269219739,-4.35727156e-13 0.589440918,-4.35727156e-13 L6.26547756,-4.35727156e-13 C6.26547756,-4.35727156e-13 6.26547756,1.19230769 6.26547756,1.19230769 C6.26547756,1.19230769 0.589440918,1.19230769 0.589440918,1.19230769 C0.263901688,1.19230769 0,0.927695971 0,0.596153846 L0,0.596153846 Z" id="Rectangle-4"></path>
                                            <path d="M6.23001269,7.55923095 L6.23001269,8.75153864 C8.62612645,8.75153864 10.5685604,6.79243999 10.5685604,4.37576932 C10.5685604,1.95909866 8.62612645,0 6.23001269,0 L6.23001269,1.19230769 C7.97323443,1.19230769 9.38639487,2.61759201 9.38639487,4.37576932 C9.38639487,6.13394663 7.97323443,7.55923095 6.23001269,7.55923095 Z" id="Combined-Shape"></path>
                                        </g>
                                        <rect id="Rectangle-16" x="4.12076769" y="7.58307401" width="3.0736305" height="1.19230769" rx="0.596153846"></rect>
                                    </g>
                                    <rect id="Rectangle-5" fill="#F8F7F5" x="52.2517185" y="0" width="1.18216558" height="16.4538462" rx="0.591082789"></rect>
                                    <g id="A" transform="translate(15.841019, 0.000000)">
                                        <path d="M0.791723117,16.4538462 C1.09363758,16.4538462 1.30120068,16.3135795 1.41441853,16.0330419 L2.81831374,12.6438621 L11.0831802,12.6438621 L12.4870754,16.0330419 C12.6002933,16.3135795 12.8078564,16.4538462 13.1097708,16.4538462 C13.2003451,16.4538462 13.2871442,16.4348912 13.3701707,16.3969808 C13.5437715,16.3287418 13.6645355,16.2074301 13.7324663,16.0330419 C13.8079448,15.8586538 13.8079448,15.6842682 13.7324663,15.5098799 L12.1587451,11.6998959 L12.1587451,11.6885228 L7.57344244,0.577017212 C7.55834673,0.539106743 7.53947734,0.497405812 7.51683377,0.451913208 C7.51683377,0.459495343 7.50173825,0.444331377 7.47154683,0.406420908 C7.44890316,0.376092471 7.43380774,0.35713754 7.42625989,0.349555506 C7.41871203,0.349555506 7.39984264,0.334391541 7.36965121,0.304063104 C7.33945969,0.281316803 7.32436428,0.269943904 7.32436428,0.269943904 C7.24888561,0.216869166 7.16586039,0.182750269 7.07528611,0.167586101 C7.08283397,0.167586101 7.06396458,0.167586101 7.01867744,0.167586101 C6.98093805,0.160003967 6.95829488,0.156213001 6.95074703,0.156213001 C6.94319907,0.156213001 6.91678202,0.160003967 6.87149478,0.167586101 L6.81488611,0.167586101 C6.73185969,0.182750269 6.65260835,0.216869166 6.57712968,0.269943904 C6.58467754,0.26236177 6.56958212,0.273734769 6.53184274,0.304063104 C6.50165132,0.326809406 6.48278192,0.341973372 6.47523407,0.349555506 C6.46768621,0.35713754 6.4525908,0.376092471 6.42994713,0.406420908 C6.3997557,0.436749243 6.38466019,0.451913208 6.38466019,0.451913208 C6.36201662,0.497405812 6.34314723,0.539106743 6.32805152,0.577017212 L1.74274884,11.6885228 L1.74274884,11.6998959 L0.169027705,15.5098799 C0.0935491388,15.6842682 0.0935491388,15.8586538 0.169027705,16.0330419 C0.236958414,16.2074301 0.357722415,16.3287418 0.531323217,16.3969808 C0.61434974,16.4348912 0.701148838,16.4538462 0.791723117,16.4538462 L0.791723117,16.4538462 L0.791723117,16.4538462 Z" id="Maker-path-Copy-3" fill="#F8F7F5"></path>
                                        <polygon id="Maker-path-Copy-4" fill="#70737F" points="3.37307874 11.2790917 6.95074703 2.61279967 10.5284152 11.2790917"></polygon>
                                    </g>
                                    <path d="M0,5.19747099 C0,2.4586857 2.23038579,0.238461538 4.96152683,0.238461538 L5.67796337,0.238461538 C8.41813897,0.238461538 10.6394902,2.45750044 10.6394902,5.19747099 L10.6394902,11.7332982 C10.6394902,14.4720835 8.40910441,16.6923077 5.67796337,16.6923077 L4.96152683,16.6923077 C2.22135123,16.6923077 0,14.4732688 0,11.7332982 L0,5.19747099 Z M1.18216558,5.5759069 L1.18216558,11.3548623 C1.18216558,13.6462262 3.03462303,15.5 5.3197451,15.5 C7.60021741,15.5 9.45732462,13.6441587 9.45732462,11.3548623 L9.45732462,5.5759069 C9.45732462,3.28454302 7.60486717,1.43076923 5.3197451,1.43076923 C3.03927279,1.43076923 1.18216558,3.28661058 1.18216558,5.5759069 Z" id="Combined-Shape" fill="#F8F7F5"></path>
                                </g>
                            </g>
                        </g>
                    </g>
                </g>
            </g>
        </g>
    </g>
</svg>