<?xml version="1.0" encoding="UTF-8" standalone="no"?>
<svg width="100px" height="66px" viewBox="0 0 100 66" version="1.1" xmlns="http://www.w3.org/2000/svg" xmlns:xlink="http://www.w3.org/1999/xlink">
    <!-- Generator: Sketch 39.1 (31720) - http://www.bohemiancoding.com/sketch -->
    <title>Maker_Logo</title>
    <desc>Created with Sketch.</desc>
    <defs>
        <path d="M28.7484974,20.5998565 C28.7484974,20.1388726 28.530251,19.7047117 28.1592461,19.4276498 L2.58894908,0.332066845 C1.61555885,-0.394848988 0.224390015,0.29480914 0.224390015,1.5042735 L0.224390015,42.4722222 C0.224390015,43.2822399 0.885622982,43.938889 1.70129518,43.938889 C2.51696739,43.938889 3.17820036,43.2822399 3.17820036,42.4722222 L3.17820026,4.3247865 L25.9405125,21.435898 L25.794687,42.4722218 C25.7946869,43.2822395 26.4559199,43.9388885 27.2715921,43.9388885 C28.0872643,43.9388885 28.7484973,43.2822395 28.7484973,42.4722218 L28.7484974,20.5998565 Z" id="path-1"></path>
        <filter x="-50%" y="-50%" width="200%" height="200%" filterUnits="objectBoundingBox" id="filter-2">
            <feGaussianBlur stdDeviation="0.5" in="SourceAlpha" result="shadowBlurInner1"></feGaussianBlur>
            <feOffset dx="0" dy="1" in="shadowBlurInner1" result="shadowOffsetInner1"></feOffset>
            <feComposite in="shadowOffsetInner1" in2="SourceAlpha" operator="arithmetic" k2="-1" k3="1" result="shadowInnerInner1"></feComposite>
            <feColorMatrix values="0 0 0 0 0   0 0 0 0 0   0 0 0 0 0  0 0 0 0.19604846 0" type="matrix" in="shadowInnerInner1"></feColorMatrix>
        </filter>
        <path d="M36.7332804,21.2478638 L59.4548972,4.3247865 L59.2327679,42.4722222 C59.2327679,43.2822399 59.8940008,43.938889 60.709673,43.938889 C61.5253452,43.938889 62.1865782,43.2822399 62.1865782,42.4722222 L62.1865782,1.5042735 C62.1865782,0.29480914 60.7954094,-0.394848988 59.8220191,0.332066845 L34.2517221,19.4276498 C33.8807172,19.7047117 33.6624708,20.1388726 33.6624708,20.5998565 L33.6624709,42.4722218 C33.6624709,43.2822395 34.3237039,43.9388885 35.1393761,43.9388885 C35.9550483,43.9388885 36.6162813,43.2822395 36.6162813,42.4722218 L36.7332804,21.2478638 Z" id="path-3"></path>
        <filter x="-50%" y="-50%" width="200%" height="200%" filterUnits="objectBoundingBox" id="filter-4">
            <feGaussianBlur stdDeviation="0.5" in="SourceAlpha" result="shadowBlurInner1"></feGaussianBlur>
            <feOffset dx="0" dy="1" in="shadowBlurInner1" result="shadowOffsetInner1"></feOffset>
            <feComposite in="shadowOffsetInner1" in2="SourceAlpha" operator="arithmetic" k2="-1" k3="1" result="shadowInnerInner1"></feComposite>
            <feColorMatrix values="0 0 0 0 0   0 0 0 0 0   0 0 0 0 0  0 0 0 0.19604846 0" type="matrix" in="shadowInnerInner1"></feColorMatrix>
        </filter>
    </defs>
    <g id="Page-1" stroke="none" stroke-width="1" fill="none" fill-rule="evenodd">
        <g id="Maker_TRADE-Copy" transform="translate(-260.000000, -186.000000)">
            <g id="header" transform="translate(230.000000, 174.000000)">
                <g id="Maker_Logo" transform="translate(30.000000, 12.500000)">
                    <g id="text" transform="translate(0.000000, 52.000000)" fill="#546979">
                        <text id="Market" font-family="Montserrat-Regular, Montserrat" font-size="12.5" font-weight="normal" letter-spacing="1.25">
                            <tspan x="48.5" y="12">Market</tspan>
                        </text>
                        <g id="logo" transform="translate(0.000000, 4.000000)">
                            <g id="Page-1">
                                <g id="128">
                                    <g id="logo-maker">
                                        <path d="M0.809557537,2.10231466 L4.02387657,7.39034137 C4.02387657,7.39034137 4.02587178,7.39232857 4.02986226,7.39630308 L4.02986226,7.40226478 C4.03784323,7.41021374 4.04582408,7.42014979 4.05380505,7.43207326 C4.06178602,7.44002222 4.06976687,7.44797107 4.07774783,7.45592003 C4.0857288,7.46386904 4.09370965,7.47181789 4.10169062,7.47976685 C4.11366207,7.48771581 4.12363814,7.49566466 4.13161911,7.50361362 C4.15157153,7.51553709 4.15556195,7.51752429 4.1435905,7.50957533 C4.14758098,7.50957533 4.14957619,7.51156253 4.14957619,7.51553704 L4.16154759,7.51553704 C4.17351904,7.52348599 4.18549031,7.52944765 4.19746177,7.53342215 C4.20544273,7.53739661 4.2154188,7.54137106 4.22739025,7.54534551 C4.2393617,7.54932002 4.25133297,7.55130722 4.26330443,7.55130722 C4.2712854,7.55528172 4.28126146,7.55726892 4.29323291,7.55726892 C4.30520436,7.56124343 4.31717564,7.56323063 4.32914709,7.56323063 C4.34111854,7.56323063 4.35308981,7.56124343 4.36506127,7.55726892 C4.37703272,7.55726892 4.38700878,7.55528172 4.39498975,7.55130722 C4.4069612,7.55130722 4.41893248,7.54932002 4.43090393,7.54534551 C4.44287538,7.54137106 4.45285144,7.53739661 4.46083241,7.53342215 C4.47280386,7.52944765 4.48477514,7.52348599 4.49674659,7.51553704 C4.51270853,7.50758808 4.51869417,7.50560088 4.51470368,7.50957533 C4.50273223,7.51752429 4.50672265,7.51553709 4.52667507,7.50361362 C4.53465604,7.49566466 4.5446321,7.48771581 4.55660355,7.47976685 C4.56458452,7.47181789 4.57256538,7.46386904 4.58054634,7.45592003 C4.58453683,7.45194558 4.59251767,7.44399672 4.60448913,7.43207326 C4.61247009,7.42014979 4.62045095,7.41021374 4.62843192,7.40226478 L4.62843192,7.39630308 C4.6324224,7.39232857 4.63441761,7.39034137 4.63441761,7.39034137 L7.84873665,2.10231466 L7.84873665,8.64229807 C7.84873665,8.74166024 7.88265524,8.82711037 7.95049348,8.89865111 C8.02232221,8.96621739 8.10612111,9 8.20189273,9 C8.30165483,9 8.38545373,8.96621739 8.45329198,8.89865111 C8.52512071,8.82711037 8.56103452,8.74166024 8.56103452,8.64229807 L8.56103452,0.826511135 C8.56103452,0.647659324 8.47324519,0.534388182 8.29766387,0.486694324 C8.12607305,0.439000518 7.99239384,0.492655235 7.89662222,0.647660224 L4.32914709,6.51993337 L0.761671966,0.647660224 C0.665900342,0.492655235 0.532221121,0.439000518 0.360630298,0.486694324 C0.185048989,0.534388182 0.097259651,0.647659324 0.097259651,0.826511135 L0.097259651,8.64229807 C0.097259651,8.74166024 0.131178259,8.82711037 0.199016492,8.89865111 C0.270845209,8.96621739 0.356639335,9 0.456401442,9 C0.552173065,9 0.635971976,8.96621739 0.707800693,8.89865111 C0.775638929,8.82711037 0.809557537,8.74166024 0.809557537,8.64229807 L0.809557537,2.10231466 L0.809557537,2.10231466 Z M13.1583155,6.28742711 L15.0497956,1.74461273 L16.9412757,6.28742711 L13.1583155,6.28742711 L13.1583155,6.28742711 Z M11.7935767,9 C11.9531961,9 12.0629328,8.92647312 12.12279,8.77941715 L12.8650164,7.00283096 L17.2345748,7.00283096 L17.9768012,8.77941715 C18.0366584,8.92647312 18.1463951,9 18.3060145,9 C18.3539003,9 18.3997902,8.99006395 18.4436855,8.97019152 C18.5354667,8.93442113 18.5993135,8.87083031 18.6352278,8.77941715 C18.6751326,8.68800399 18.6751326,8.59659221 18.6352278,8.50517899 L17.803216,6.50800996 L17.803216,6.50204825 L15.3790089,0.6774687 C15.371028,0.657596276 15.3610519,0.635736918 15.3490804,0.611889988 C15.3490804,0.615864494 15.3410996,0.607915641 15.3251377,0.588043218 C15.3131662,0.572145247 15.3051854,0.562209194 15.3011949,0.558234741 C15.2972044,0.558234741 15.2872283,0.550285888 15.2712664,0.534387918 C15.2553044,0.522464453 15.2473236,0.516502853 15.2473236,0.516502853 C15.2074187,0.488681418 15.1635241,0.470796512 15.1156383,0.462847553 C15.1196288,0.462847553 15.1096527,0.462847553 15.0857098,0.462847553 C15.0657573,0.458873047 15.0537861,0.456885847 15.0497956,0.456885847 C15.0458051,0.456885847 15.0318386,0.458873047 15.0078957,0.462847553 L14.9779672,0.462847553 C14.9340719,0.470796512 14.8921725,0.488681418 14.8522676,0.516502853 C14.8562581,0.512528347 14.8482773,0.51849 14.8283248,0.534387918 C14.8123629,0.546311382 14.8023868,0.554260235 14.7983963,0.558234741 C14.7944058,0.562209194 14.786425,0.572145247 14.7744535,0.588043218 C14.7584916,0.603941135 14.7505108,0.611889988 14.7505108,0.611889988 C14.7385393,0.635736918 14.7285632,0.657596276 14.7205823,0.6774687 L12.2963752,6.50204825 L12.2963752,6.50800996 L11.4643634,8.50517899 C11.4244586,8.59659221 11.4244586,8.68800399 11.4643634,8.77941715 C11.5002777,8.87083031 11.5641245,8.93442113 11.6559057,8.97019152 C11.699801,8.99006395 11.7456909,9 11.7935767,9 L11.7935767,9 L11.7935767,9 Z M21.9036842,8.83307245 C21.9755129,8.76550616 22.0114267,8.68204324 22.0114267,8.58268112 L22.0114267,6.30531222 L23.0768807,5.18451289 L26.6144273,8.8926894 C26.686256,8.96423019 26.7720502,9 26.8718123,9 C26.9675839,9 27.0493876,8.96820459 27.1172258,8.90461281 C27.1890545,8.83704658 27.2269636,8.7535836 27.230954,8.65422148 C27.230954,8.55485931 27.1970355,8.47139638 27.1291972,8.40383015 L23.5677078,4.67180677 L27.0094833,1.07094081 C27.0773215,0.999400076 27.1092449,0.913949894 27.1052544,0.814587776 C27.1052544,0.719200112 27.0693406,0.637724382 26.9975119,0.5701581 C26.9256832,0.502591871 26.839889,0.468809259 26.7401269,0.468809259 C26.6443553,0.472783712 26.5625516,0.510540776 26.4947134,0.582081512 L22.0114267,5.27990003 L22.0114267,0.790740953 C22.0114267,0.695353288 21.9755129,0.611890359 21.9036842,0.540349624 C21.8358459,0.472783394 21.752047,0.439000729 21.6522849,0.439000729 C21.5565133,0.439000729 21.4727144,0.472783394 21.4008857,0.540349624 C21.3330474,0.611890359 21.2991288,0.695353288 21.2991288,0.790740953 L21.2991288,8.58268112 C21.2991288,8.68204324 21.3330474,8.76550616 21.4008857,8.83307245 C21.4727144,8.90461318 21.5565133,8.94038299 21.6522849,8.94038299 C21.752047,8.94038299 21.8358459,8.90461318 21.9036842,8.83307245 L21.9036842,8.83307245 L21.9036842,8.83307245 Z M35.0904396,9 C35.1902017,9 35.2740006,8.96423019 35.3418389,8.8926894 C35.4136676,8.82512317 35.4495814,8.74166024 35.4495814,8.64229807 C35.4495814,8.54293595 35.4136676,8.45947297 35.3418389,8.39190674 C35.2740006,8.32036601 35.1902017,8.28459614 35.0904396,8.28459614 L30.6969384,8.28459614 L30.6969384,5.07720229 L33.9830858,5.07720229 C34.0828479,5.07720229 34.1666468,5.04143248 34.234485,4.96989169 C34.3063138,4.90232546 34.3422276,4.81886254 34.3422276,4.71950036 C34.3422276,4.62013825 34.3063138,4.53667526 34.234485,4.46910904 C34.1666468,4.3975683 34.0828479,4.36179844 33.9830858,4.36179844 L30.6969384,4.36179844 L30.6969384,1.15440459 L35.0904396,1.166328 C35.1902017,1.166328 35.2740006,1.13254534 35.3418389,1.06497911 C35.4136676,0.993438371 35.4495814,0.907988188 35.4495814,0.808626071 C35.4495814,0.713238406 35.4136676,0.629775476 35.3418389,0.558234741 C35.2740006,0.486693953 35.1902017,0.450924141 35.0904396,0.450924141 L30.3377966,0.439000729 C30.242025,0.435026276 30.1582261,0.470796088 30.0863973,0.546311329 C30.0145686,0.613877559 29.9786548,0.697340541 29.9786548,0.796702659 L29.9786548,8.64229807 C29.9786548,8.74166024 30.0145686,8.82512317 30.0863973,8.8926894 C30.1542356,8.96423019 30.2380345,9 30.3377966,9 L35.0904396,9 L35.0904396,9 Z M42.6626118,3.87890084 C42.3234206,4.18891076 41.9104117,4.34788777 41.4235726,4.35583678 L39.029294,4.35583678 L39.029294,1.166328 L41.3816727,1.166328 C41.8764928,1.166328 42.2994778,1.32331781 42.6506404,1.63730218 C43.001803,1.94731205 43.1773817,2.32289529 43.1773817,2.76406322 C43.1773817,3.19728214 43.0057934,3.56889097 42.6626118,3.87890084 L42.6626118,3.87890084 L42.6626118,3.87890084 Z M38.6701522,0.462847553 C38.5743806,0.462847553 38.4905817,0.496630165 38.4187529,0.564196394 C38.3509147,0.631762676 38.3169961,0.715225606 38.3169961,0.814587776 L38.3169961,8.58864277 C38.3169961,8.68403044 38.3509147,8.76749342 38.4187529,8.83903415 C38.4905817,8.90660038 38.5743806,8.94038299 38.6701522,8.94038299 C38.7699143,8.94038299 38.8537132,8.90660038 38.9215514,8.83903415 C38.9933802,8.76749342 39.029294,8.68403044 39.029294,8.58864277 L39.029294,5.06527888 L41.0285166,5.06527888 L42.8780969,8.80326397 C42.9419446,8.93442198 43.0476908,9 43.1953388,9 C43.2512056,9 43.3030811,8.98807675 43.3509669,8.96422982 C43.4387575,8.92051046 43.4986139,8.85294524 43.5305378,8.76153203 C43.5624617,8.67011887 43.556476,8.58069429 43.5125807,8.49325564 L41.8066571,5.0295087 C42.4012393,4.93809554 42.8940568,4.67975785 43.2851242,4.25448789 C43.6841727,3.82524342 43.8836938,3.32844019 43.8836938,2.76406322 C43.8836938,2.12814551 43.640278,1.58563636 43.1534389,1.13651947 C42.6626093,0.687402635 42.0720265,0.462847553 41.3816727,0.462847553 L38.6701522,0.462847553 L38.6701522,0.462847553 Z" id="Maker"></path>
                                    </g>
                                </g>
                            </g>
                        </g>
                    </g>
                    <g id="logo" transform="translate(19.000000, 0.000000)">
                        <g id="Shape">
                            <use fill="#EFF1F3" fill-rule="evenodd" xlink:href="#path-1"></use>
                            <use fill="black" fill-opacity="1" filter="url(#filter-2)" xlink:href="#path-1"></use>
                        </g>
                        <g id="Shape">
                            <use fill="#EFF1F3" fill-rule="evenodd" xlink:href="#path-3"></use>
                            <use fill="black" fill-opacity="1" filter="url(#filter-4)" xlink:href="#path-3"></use>
                        </g>
                    </g>
                </g>
            </g>
        </g>
    </g>
</svg>