<?xml version="1.0" encoding="UTF-8"?>
<svg width="25px" height="25px" viewBox="0 0 25 25" version="1.1" xmlns="http://www.w3.org/2000/svg" xmlns:xlink="http://www.w3.org/1999/xlink">
    <!-- Generator: Sketch 48.1 (47250) - http://www.bohemiancoding.com/sketch -->
    <title>ICON_MAKER</title>
    <desc>Created with Sketch.</desc>
    <defs></defs>
    <g id="ICON_DAI-Copy-3" stroke="none" stroke-width="1" fill="none" fill-rule="evenodd" transform="translate(-146.000000, -188.000000)">
        <g id="ICON_MAKER" transform="translate(147.000000, 189.000000)">
            <circle id="Oval-4" stroke="#4D606F" stroke-width="0.821428571" cx="11.5" cy="11.5" r="11.5"></circle>
            <g id="logo" transform="translate(4.600000, 6.902141)" fill-rule="nonzero">
                <g id="Group" transform="translate(0.000000, 0.117985)">
                    <path d="M8.26879437,4.59670787 L12.7302043,1.253594 L12.7302043,8.60289864 C12.7302043,8.60289864 12.7302043,9.0258768 13.155459,9.0258768 C13.5807137,9.0258768 13.5806153,8.60289864 13.5806153,8.60289864 L13.5806153,0.430898867 C13.5806153,0.430898867 13.5051282,-0.117985318 12.8528719,0.0690213028 C12.8528719,0.0690213028 7.53574352,4.04099713 7.53574352,4.04099713 C7.53574352,4.04099713 7.42915136,4.19959407 7.41838512,4.40309317 L7.41838512,8.60289864 C7.41838512,8.60289864 7.41838512,9.0258768 7.84358974,9.0258768 C8.26879437,9.0258768 8.26879437,8.60289864 8.26879437,8.60289864 L8.26879437,4.59670787 Z" id="Shape" fill="#546979"></path>
                    <path d="M0.896999496,4.59670787 L5.35840939,1.253594 L5.35840939,8.60289864 C5.35840939,8.60289864 5.35840939,9.0258768 5.78366413,9.0258768 C6.20891888,9.0258768 6.20882044,8.60289864 6.20882044,8.60289864 L6.20882044,0.430898867 C6.20882044,0.430898867 6.13333333,-0.117985318 5.48107707,0.0690213028 C5.48107707,0.0690213028 0.163948646,4.04099713 0.163948646,4.04099713 C0.163948646,4.04099713 0.0573564885,4.19959407 0.0465902475,4.40309317 L0.0465902475,8.60289864 C0.0465902475,8.60289864 0.0465902475,9.0258768 0.471794872,9.0258768 C0.896999496,9.0258768 0.896999496,8.60289864 0.896999496,8.60289864 L0.896999496,4.59670787 Z" id="Shape-Copy" fill="#4D606F" transform="translate(3.127705, 4.528025) scale(-1, 1) translate(-3.127705, -4.528025) "></path>
                </g>
            </g>
        </g>
    </g>
</svg>