<!DOCTYPE svg PUBLIC "-//W3C//DTD SVG 1.1//EN"
    "http://www.w3.org/Graphics/SVG/1.1/DTD/svg11.dtd">
<svg 
  width="521px"
  height="521px"
  version="1.1"
   baseProfile="full"
   xmlns="http://www.w3.org/2000/svg"
   xmlns:xlink="http://www.w3.org/1999/xlink"
   xmlns:ev="http://www.w3.org/2001/xml-events">
<polygon fill="rgb(228,118,27)" stroke="rgb(228,118,27)" points="444.7288255393505,312.8441034704447 420.327861726284,395.35179859399796 372.44903913140297,382.27098298072815"></polygon><polygon fill="rgb(228,118,27)" stroke="rgb(228,118,27)" points="372.44903913140297,382.27098298072815 418.58254370093346,318.9856262281537 444.7288255393505,312.8441034704447"></polygon><polygon fill="rgb(246,133,27)" stroke="rgb(246,133,27)" points="408.8247988820076,250.70197647996247 444.7288255393505,312.8441034704447 418.58254370093346,318.9856262281537"></polygon><polygon fill="rgb(246,133,27)" stroke="rgb(246,133,27)" points="408.8247988820076,250.70197647996247 431.92246600985527,234.70948078483343 444.7288255393505,312.8441034704447"></polygon><polygon fill="rgb(118,61,22)" stroke="rgb(118,61,22)" points="379.4501317590475,203.68543868511915 445.7978547215462,176.51112163066864 442.51459178328514,191.37872417271137"></polygon><polygon fill="rgb(118,61,22)" stroke="rgb(118,61,22)" points="440.4268804490566,209.30968113988638 379.4501317590475,203.68543868511915 442.51459178328514,191.37872417271137"></polygon><polygon fill="rgb(118,61,22)" stroke="rgb(118,61,22)" points="440.4268804490566,209.30968113988638 431.92246600985527,234.70948078483343 379.4501317590475,203.68543868511915"></polygon><polygon fill="rgb(118,61,22)" stroke="rgb(118,61,22)" points="453.669261097908,182.71935917437077 442.51459178328514,191.37872417271137 445.7978547215462,176.51112163066864"></polygon><polygon fill="rgb(118,61,22)" stroke="rgb(118,61,22)" points="440.4268804490566,209.30968113988638 442.51459178328514,191.37872417271137 451.44515895843506,198.72195605188608"></polygon><polygon fill="rgb(226,118,27)" stroke="rgb(226,118,27)" points="320.89944441616535,362.2120319902897 337.52510437369347,367.5046996772289 372.44903913140297,382.27098298072815"></polygon><polygon fill="rgb(118,61,22)" stroke="rgb(118,61,22)" points="431.92246600985527,234.70948078483343 440.4268804490566,209.30968113988638 447.7360326349735,214.82007575780153"></polygon><polygon fill="rgb(118,61,22)" stroke="rgb(118,61,22)" points="431.92246600985527,234.70948078483343 362.97214728593826,211.96668362617493 379.4501317590475,203.68543868511915"></polygon><polygon fill="rgb(118,61,22)" stroke="rgb(118,61,22)" points="395.8590070903301,125.74261182546616 379.4501317590475,203.68543868511915 362.97214728593826,211.96668362617493"></polygon><polygon fill="rgb(118,61,22)" stroke="rgb(118,61,22)" points="445.7978547215462,176.51112163066864 379.4501317590475,203.68543868511915 395.8590070903301,125.74261182546616"></polygon><polygon fill="rgb(118,61,22)" stroke="rgb(118,61,22)" points="395.8590070903301,125.74261182546616 465.06640633940697,117.7595745921135 445.7978547215462,176.51112163066864"></polygon><polygon fill="rgb(246,133,27)" stroke="rgb(246,133,27)" points="431.92246600985527,234.70948078483343 408.8247988820076,250.70197647996247 362.97214728593826,211.96668362617493"></polygon><polygon fill="rgb(118,61,22)" stroke="rgb(118,61,22)" points="462.1147241294384,61.70056253671646 465.06640633940697,117.7595745921135 395.8590070903301,125.74261182546616"></polygon><polygon fill="rgb(226,118,27)" stroke="rgb(226,118,27)" points="462.1147241294384,61.70056253671646 323.6107675284147,162.37393637001514 321.8579644560814,94.07721376419067"></polygon><polygon fill="rgb(246,133,27)" stroke="rgb(246,133,27)" points="218.7886162251234,85.86228919029236 321.8579644560814,94.07721376419067 323.6107675284147,162.37393637001514"></polygon><polygon fill="rgb(118,61,22)" stroke="rgb(118,61,22)" points="362.97214728593826,211.96668362617493 323.6107675284147,162.37393637001514 395.8590070903301,125.74261182546616"></polygon><polygon fill="rgb(228,118,27)" stroke="rgb(228,118,27)" points="362.97214728593826,211.96668362617493 408.8247988820076,250.70197647996247 344.53714664280415,257.7440788827371"></polygon><polygon fill="rgb(228,118,27)" stroke="rgb(228,118,27)" points="344.53714664280415,257.7440788827371 323.6107675284147,162.37393637001514 362.97214728593826,211.96668362617493"></polygon><polygon fill="rgb(118,61,22)" stroke="rgb(118,61,22)" points="395.8590070903301,125.74261182546616 323.6107675284147,162.37393637001514 462.1147241294384,61.70056253671646"></polygon><polygon fill="rgb(192,173,158)" stroke="rgb(192,173,158)" points="219.69281827658415,380.6815369427204 252.39577450277284,414.73658725619316 207.9176172465086,374.28442691266537"></polygon><polygon fill="rgb(205,97,22)" stroke="rgb(205,97,22)" points="372.44903913140297,382.27098298072815 387.8957242369652,323.37606082856655 418.58254370093346,318.9856262281537"></polygon><polygon fill="rgb(226,118,27)" stroke="rgb(226,118,27)" points="87.09620466828346,216.5341194793582 143.66602724790573,157.09539042413235 94.44805893301964,209.49862322956324"></polygon><polygon fill="rgb(246,133,27)" stroke="rgb(246,133,27)" points="418.58254370093346,318.9856262281537 387.8957242369652,323.37606082856655 408.8247988820076,250.70197647996247"></polygon><polygon fill="rgb(246,133,27)" stroke="rgb(246,133,27)" points="323.6107675284147,162.37393637001514 268.4645658582449,160.5978760868311 218.7886162251234,85.86228919029236"></polygon><polygon fill="rgb(228,117,31)" stroke="rgb(228,117,31)" points="408.8247988820076,250.70197647996247 387.8957242369652,323.37606082856655 386.1704018712044,287.8388212658465"></polygon><polygon fill="rgb(205,97,22)" stroke="rgb(205,97,22)" points="344.53714664280415,257.7440788827371 408.8247988820076,250.70197647996247 386.1704018712044,287.8388212658465"></polygon><polygon fill="rgb(246,133,27)" stroke="rgb(246,133,27)" points="268.4645658582449,160.5978760868311 323.6107675284147,162.37393637001514 344.53714664280415,257.7440788827371"></polygon><polygon fill="rgb(228,118,27)" stroke="rgb(228,118,27)" points="268.4645658582449,160.5978760868311 119.85171446204185,22.9228957593441 218.7886162251234,85.86228919029236"></polygon><polygon fill="rgb(228,118,27)" stroke="rgb(228,118,27)" points="218.67575420439243,401.5383585691452 89.48680531978607,441.52209627628326 63.674997717142105,343.08026687800884"></polygon><polygon fill="rgb(118,61,22)" stroke="rgb(118,61,22)" points="106.35403507947922,241.1192702203989 155.15311488509178,202.88781939446926 196.00005945563316,212.37068838626146"></polygon><polygon fill="rgb(118,61,22)" stroke="rgb(118,61,22)" points="196.00005945563316,212.37068838626146 155.15311488509178,202.88781939446926 177.06138291954994,112.4409371316433"></polygon><polygon fill="rgb(118,61,22)" stroke="rgb(118,61,22)" points="94.44805893301964,209.49862322956324 155.15311488509178,202.88781939446926 106.35403507947922,241.1192702203989"></polygon><polygon fill="rgb(205,97,22)" stroke="rgb(205,97,22)" points="386.1704018712044,287.8388212658465 361.04824654757977,275.15208517201245 344.53714664280415,257.7440788827371"></polygon><polygon fill="rgb(118,61,22)" stroke="rgb(118,61,22)" points="94.44805893301964,209.49862322956324 90.14376857876778,186.77060517668724 155.15311488509178,202.88781939446926"></polygon><polygon fill="rgb(35,52,71)" stroke="rgb(35,52,71)" points="355.7895936667919,303.7343546971679 361.04824654757977,275.15208517201245 386.1704018712044,287.8388212658465"></polygon><polygon fill="rgb(246,133,27)" stroke="rgb(246,133,27)" points="387.8957242369652,323.37606082856655 355.7895936667919,303.7343546971679 386.1704018712044,287.8388212658465"></polygon><polygon fill="rgb(118,61,22)" stroke="rgb(118,61,22)" points="155.15311488509178,202.88781939446926 90.14376857876778,186.77060517668724 84.83533975481987,167.6909188181162"></polygon><polygon fill="rgb(118,61,22)" stroke="rgb(118,61,22)" points="177.06138291954994,112.4409371316433 155.15311488509178,202.88781939446926 84.83533975481987,167.6909188181162"></polygon><polygon fill="rgb(118,61,22)" stroke="rgb(118,61,22)" points="177.06138291954994,112.4409371316433 268.4645658582449,160.5978760868311 196.00005945563316,212.37068838626146"></polygon><polygon fill="rgb(228,118,27)" stroke="rgb(228,118,27)" points="196.00005945563316,212.37068838626146 268.4645658582449,160.5978760868311 300.76943089812994,259.2654865991499"></polygon><polygon fill="rgb(228,118,27)" stroke="rgb(228,118,27)" points="300.76943089812994,259.2654865991499 200.5682072341442,257.1994436276145 196.00005945563316,212.37068838626146"></polygon><polygon fill="rgb(246,133,27)" stroke="rgb(246,133,27)" points="106.35403507947922,241.1192702203989 196.00005945563316,212.37068838626146 200.5682072341442,257.1994436276145"></polygon><polygon fill="rgb(246,133,27)" stroke="rgb(246,133,27)" points="344.53714664280415,257.7440788827371 300.76943089812994,259.2654865991499 268.4645658582449,160.5978760868311"></polygon><polygon fill="rgb(205,97,22)" stroke="rgb(205,97,22)" points="361.04824654757977,275.15208517201245 355.7895936667919,303.7343546971679 344.53714664280415,257.7440788827371"></polygon><polygon fill="rgb(118,61,22)" stroke="rgb(118,61,22)" points="119.85171446204185,22.9228957593441 268.4645658582449,160.5978760868311 177.06138291954994,112.4409371316433"></polygon><polygon fill="rgb(228,118,27)" stroke="rgb(228,118,27)" points="63.674997717142105,343.08026687800884 189.06413166224957,337.8942082822323 218.67575420439243,401.5383585691452"></polygon><polygon fill="rgb(205,97,22)" stroke="rgb(205,97,22)" points="218.67575420439243,401.5383585691452 189.06413166224957,337.8942082822323 250.73346754256636,334.8623570948839"></polygon><polygon fill="rgb(246,133,27)" stroke="rgb(246,133,27)" points="355.7895936667919,303.7343546971679 387.8957242369652,323.37606082856655 405.6632307767868,365.02165523171425"></polygon><polygon fill="rgb(246,133,27)" stroke="rgb(246,133,27)" points="200.5682072341442,257.1994436276145 63.674997717142105,343.08026687800884 106.35403507947922,241.1192702203989"></polygon><polygon fill="rgb(246,133,27)" stroke="rgb(246,133,27)" points="189.06413166224957,337.8942082822323 63.674997717142105,343.08026687800884 200.5682072341442,257.1994436276145"></polygon><polygon fill="rgb(246,133,27)" stroke="rgb(246,133,27)" points="344.53714664280415,257.7440788827371 352.71518866717815,287.594331856817 313.10687850415707,289.8201398178935"></polygon><polygon fill="rgb(246,133,27)" stroke="rgb(246,133,27)" points="313.10687850415707,289.8201398178935 300.76943089812994,259.2654865991499 344.53714664280415,257.7440788827371"></polygon><polygon fill="rgb(192,173,158)" stroke="rgb(192,173,158)" points="252.39577450277284,414.73658725619316 218.67575420439243,401.5383585691452 335.95427246391773,421.2759896814823"></polygon><polygon fill="rgb(118,61,22)" stroke="rgb(118,61,22)" points="106.35403507947922,241.1192702203989 87.09620466828346,216.5341194793582 94.44805893301964,209.49862322956324"></polygon><polygon fill="rgb(215,193,179)" stroke="rgb(215,193,179)" points="349.2482108473778,406.69772815704346 335.95427246391773,421.2759896814823 218.67575420439243,401.5383585691452"></polygon><polygon fill="rgb(228,118,27)" stroke="rgb(228,118,27)" points="355.55930092930794,370.8148558884859 218.67575420439243,401.5383585691452 250.73346754256636,334.8623570948839"></polygon><polygon fill="rgb(215,193,179)" stroke="rgb(215,193,179)" points="218.67575420439243,401.5383585691452 355.55930092930794,370.8148558884859 349.2482108473778,406.69772815704346"></polygon><polygon fill="rgb(118,61,22)" stroke="rgb(118,61,22)" points="84.83533975481987,167.6909188181162 80.30832546949387,90.74241024255753 177.06138291954994,112.4409371316433"></polygon><polygon fill="rgb(118,61,22)" stroke="rgb(118,61,22)" points="94.44805893301964,209.49862322956324 81.12076145410538,195.92633854597807 90.14376857876778,186.77060517668724"></polygon><polygon fill="rgb(205,97,22)" stroke="rgb(205,97,22)" points="278.4227089136839,279.08734786882997 300.76943089812994,259.2654865991499 297.58802703768015,307.6818260103464"></polygon><polygon fill="rgb(205,97,22)" stroke="rgb(205,97,22)" points="300.76943089812994,259.2654865991499 278.4227089136839,279.08734786882997 245.86182747408748,295.940727442503"></polygon><polygon fill="rgb(246,133,27)" stroke="rgb(246,133,27)" points="405.6632307767868,365.02165523171425 399.50446102023125,360.5952937155962 355.7895936667919,303.7343546971679"></polygon><polygon fill="rgb(205,97,22)" stroke="rgb(205,97,22)" points="245.86182747408748,295.940727442503 200.5682072341442,257.1994436276145 300.76943089812994,259.2654865991499"></polygon><polygon fill="rgb(228,117,31)" stroke="rgb(228,117,31)" points="297.58802703768015,307.6818260103464 300.76943089812994,259.2654865991499 313.10687850415707,289.8201398178935"></polygon><polygon fill="rgb(118,61,22)" stroke="rgb(118,61,22)" points="76.75972789525986,175.24708659946918 84.83533975481987,167.6909188181162 90.14376857876778,186.77060517668724"></polygon><polygon fill="rgb(35,52,71)" stroke="rgb(35,52,71)" points="297.58802703768015,307.6818260103464 245.86182747408748,295.940727442503 278.4227089136839,279.08734786882997"></polygon><polygon fill="rgb(118,61,22)" stroke="rgb(118,61,22)" points="177.06138291954994,112.4409371316433 80.30832546949387,90.74241024255753 119.85171446204185,22.9228957593441"></polygon><polygon fill="rgb(192,173,158)" stroke="rgb(192,173,158)" points="335.95427246391773,421.2759896814823 341.37685015797615,436.2223135828972 252.39577450277284,414.73658725619316"></polygon><polygon fill="rgb(246,133,27)" stroke="rgb(246,133,27)" points="250.73346754256636,334.8623570948839 245.86182747408748,295.940727442503 297.58802703768015,307.6818260103464"></polygon><polygon fill="rgb(228,117,31)" stroke="rgb(228,117,31)" points="200.5682072341442,257.1994436276145 245.86182747408748,295.940727442503 250.73346754256636,334.8623570948839"></polygon><polygon fill="rgb(246,133,27)" stroke="rgb(246,133,27)" points="313.10687850415707,289.8201398178935 352.71518866717815,287.594331856817 399.50446102023125,360.5952937155962"></polygon><polygon fill="rgb(246,133,27)" stroke="rgb(246,133,27)" points="200.5682072341442,257.1994436276145 250.73346754256636,334.8623570948839 189.06413166224957,337.8942082822323"></polygon><polygon fill="rgb(228,117,31)" stroke="rgb(228,117,31)" points="313.10687850415707,289.8201398178935 362.2989956140518,364.7564665675163 297.58802703768015,307.6818260103464"></polygon><polygon fill="rgb(246,133,27)" stroke="rgb(246,133,27)" points="297.58802703768015,307.6818260103464 362.2989956140518,364.7564665675163 355.55930092930794,370.8148558884859"></polygon><polygon fill="rgb(246,133,27)" stroke="rgb(246,133,27)" points="355.55930092930794,370.8148558884859 250.73346754256636,334.8623570948839 297.58802703768015,307.6818260103464"></polygon><polygon fill="rgb(246,133,27)" stroke="rgb(246,133,27)" points="399.50446102023125,360.5952937155962 362.2989956140518,364.7564665675163 313.10687850415707,289.8201398178935"></polygon><polygon fill="rgb(192,173,158)" stroke="rgb(192,173,158)" points="409.30972027778625,395.79446026682854 393.3310866653919,427.87750920653343 341.37685015797615,436.2223135828972"></polygon><polygon fill="rgb(192,173,158)" stroke="rgb(192,173,158)" points="341.37685015797615,436.2223135828972 335.95427246391773,421.2759896814823 349.2482108473778,406.69772815704346"></polygon><polygon fill="rgb(192,173,158)" stroke="rgb(192,173,158)" points="349.2482108473778,406.69772815704346 359.01385951042175,402.77264204621315 341.37685015797615,436.2223135828972"></polygon><polygon fill="rgb(192,173,158)" stroke="rgb(192,173,158)" points="341.37685015797615,436.2223135828972 359.01385951042175,402.77264204621315 409.30972027778625,395.79446026682854"></polygon><polygon fill="rgb(22,22,22)" stroke="rgb(22,22,22)" points="399.50446102023125,360.5952937155962 411.7726281583309,368.10348933935165 374.3957985788584,372.5302684754133"></polygon><polygon fill="rgb(22,22,22)" stroke="rgb(22,22,22)" points="374.3957985788584,372.5302684754133 362.2989956140518,364.7564665675163 399.50446102023125,360.5952937155962"></polygon><polygon fill="rgb(22,22,22)" stroke="rgb(22,22,22)" points="370.1142222583294,378.49134461581707 415.6128760576248,372.92392940819263 409.30972027778625,395.79446026682854"></polygon><polygon fill="rgb(22,22,22)" stroke="rgb(22,22,22)" points="409.30972027778625,395.79446026682854 359.01385951042175,402.77264204621315 370.1142222583294,378.49134461581707"></polygon><polygon fill="rgb(22,22,22)" stroke="rgb(22,22,22)" points="359.01385951042175,402.77264204621315 349.2482108473778,406.69772815704346 355.55930092930794,370.8148558884859"></polygon><polygon fill="rgb(22,22,22)" stroke="rgb(22,22,22)" points="355.55930092930794,370.8148558884859 362.2989956140518,364.7564665675163 374.3957985788584,372.5302684754133"></polygon><polygon fill="rgb(22,22,22)" stroke="rgb(22,22,22)" points="411.7726281583309,368.10348933935165 415.6128760576248,372.92392940819263 370.1142222583294,378.49134461581707"></polygon><polygon fill="rgb(22,22,22)" stroke="rgb(22,22,22)" points="370.1142222583294,378.49134461581707 374.3957985788584,372.5302684754133 411.7726281583309,368.10348933935165"></polygon><polygon fill="rgb(22,22,22)" stroke="rgb(22,22,22)" points="355.55930092930794,370.8148558884859 370.1142222583294,378.49134461581707 359.01385951042175,402.77264204621315"></polygon><polygon fill="rgb(22,22,22)" stroke="rgb(22,22,22)" points="374.3957985788584,372.5302684754133 370.1142222583294,378.49134461581707 355.55930092930794,370.8148558884859"></polygon></svg>
